<?xml version="1.0" encoding="utf-8"?>
<!-- Generator: Adobe Illustrator 21.0.0, SVG Export Plug-In . SVG Version: 6.00 Build 0)  -->
<svg version="1.1" id="Layer_2" xmlns="http://www.w3.org/2000/svg" xmlns:xlink="http://www.w3.org/1999/xlink" x="0px" y="0px"
	 viewBox="51 18 492 161" style="enable-background:new 51 18 492 161;" xml:space="preserve">
<style type="text/css">
	.st0{fill:#1A171B;}
	.st1{fill:#E5022F;}
	.st2{fill:#FFFFFF;}
</style>
<g id="societe_generale">
	<g id="XMLID_62_">
		<path id="XMLID_18_" class="st0" d="M213.9,30.8c-5.2-2.2-10.6-3.7-15.6-3.7c-7.2,0-10.6,1.5-10.6,4.2c0,7.9,31.8,1.5,31.8,18.3
			c0,6.9-6.4,12.3-19.5,12.3c-7.7,0-13.8-1.5-20.7-5.4l3-6.2c6.2,3.5,11.8,4.9,18,4.9c7.7,0,11.8-2.2,11.8-5.7
			c0-8.6-31.8-2.2-31.8-18c0-6.7,6.4-11.4,18.3-11.4c6.9,0,12.8,1.5,18.5,4.4L213.9,30.8z"/>
		<path id="XMLID_68_" class="st0" d="M249.2,62.4c-12.6,0-23.2-8.4-23.2-21s10.6-21,23.2-21c12.8,0,23.2,8.6,23.2,21
			C272.4,54,262.1,62.4,249.2,62.4 M249.2,27.1c-9.1,0-15.6,6.2-15.6,14.3s5.9,14.3,15.6,14.3c9.4,0,15.6-6.2,15.6-14.3
			C264.8,33.3,258.6,27.1,249.2,27.1"/>
		<path id="XMLID_15_" class="st0" d="M302.8,62.4c-13.3,0-23.5-8.4-23.5-21c0-12.3,10.1-21,23.5-21c7.9,0,13.6,2.2,18.5,5.9
			l-3.9,5.9c-3.7-2.7-8.1-4.9-14.3-4.9c-9.6,0-15.8,6.2-15.8,14.1c0,8.1,6.2,14.1,15.8,14.1c6.2,0,10.9-2,14.6-4.7l3.9,5.9
			C316.4,60.2,310.5,62.4,302.8,62.4"/>
		<rect id="XMLID_14_" x="329.7" y="21.5" class="st0" width="7.4" height="39.7"/>
		<polygon id="XMLID_13_" class="st0" points="348,61.4 348,21.5 384.3,21.5 384.3,28.1 355.4,28.1 355.4,37.7 377.8,37.7 
			377.8,44.4 355.4,44.4 355.4,54.8 385.5,54.8 385.5,61.4 		"/>
		<polygon id="XMLID_12_" class="st0" points="413.1,28.1 413.1,61.4 405.7,61.4 405.7,28.1 389.5,28.1 389.5,21.5 429.2,21.5 
			429.2,28.1 		"/>
		<polygon id="XMLID_11_" class="st0" points="435.1,61.4 435.1,21.5 471.4,21.5 471.4,28.1 442.5,28.1 442.5,37.7 465,37.7 
			465,44.4 442.5,44.4 442.5,54.8 472.6,54.8 472.6,61.4 		"/>
	</g>
	<g id="XMLID_49_">
		<path id="XMLID_10_" class="st0" d="M202.8,109.1c3.9,0,8.1-1,11.4-2.5V95h7.2v15.6c-4.9,3.5-12.1,5.4-18.8,5.4
			c-13.3,0-23.5-8.4-23.5-21c0-12.3,10.1-21,23.5-21c7.7,0,13.6,2.2,18.5,5.9l-3.9,5.9c-3.7-2.7-8.4-4.7-14.3-4.7
			C193.2,81,187,87.1,187,95.3C187,103.2,192.9,109.1,202.8,109.1"/>
		<polygon id="XMLID_9_" class="st0" points="231,115 231,75 267.3,75 267.3,81.7 238.4,81.7 238.4,91.3 260.8,91.3 260.8,98 
			238.4,98 238.4,108.4 268.7,108.4 268.7,115 		"/>
		<path id="XMLID_8_" class="st0" d="M283.1,115h-7.2V75h7.7l25.9,30.1h0.2c-0.5-7.7-0.5-13.6-0.5-19.5V75.3h7.2V115H309l-25.9-30.1
			l0,0c0.2,5.9,0.2,16.3,0.2,19.5V115H283.1z"/>
		<polygon id="XMLID_7_" class="st0" points="326.7,115 326.7,75 363,75 363,81.7 334.2,81.7 334.2,91.3 356.6,91.3 356.6,98 
			334.2,98 334.2,108.4 364.3,108.4 364.3,115 		"/>
		<path id="XMLID_55_" class="st0" d="M391.4,100.2h-11.8v14.6h-7.4V75h25.4c8.4,0,13.8,5.2,13.8,12.6c0,7.2-5.2,11.4-11.4,12.3
			l11.8,14.8h-9.4L391.4,100.2z M396.9,93.5c4.7,0,7.2-2.5,7.2-5.9c0-3.7-2.2-6.2-6.4-6.2h-18.3v11.8h17.5V93.5z"/>
		<path id="XMLID_52_" class="st0" d="M427,105.1l-4.7,9.6h-7.9L433.9,75h7.7l19.5,39.7h-7.9l-4.7-9.6H427z M429.9,98.7h15.3
			l-7.7-16L429.9,98.7z"/>
		<polygon id="XMLID_2_" class="st0" points="466.5,115 466.5,75 473.9,75 473.9,108.4 500.3,108.4 500.3,115 		"/>
		<polygon id="XMLID_1_" class="st0" points="505.5,115 505.5,75 541.8,75 541.8,81.7 512.9,81.7 512.9,91.3 535.3,91.3 535.3,98 
			512.9,98 512.9,108.4 543,108.4 543,115 		"/>
	</g>
</g>
<g id="shape_sg">
	<rect id="rect14680" x="51" y="18" class="st1" width="99" height="61.5"/>
	<rect id="rect14682" x="51" y="67.4" width="99" height="50.1"/>
	<rect id="rect3178" x="68" y="64.9" class="st2" width="65.7" height="6.4"/>
</g>
<g id="baseline">
	<path id="XMLID_95_" d="M55.7,150.8h10.4c3.9,0,7.5,1.3,7.5,5.7c0,3.8-2.5,6.2-6.5,6.2H55.7V150.8z M51.1,166.5h16.6
		c6.8,0,10.4-4.8,10.4-9.9c0-4.2-2.3-7.4-6.5-8.3v-0.1c3.2-1.3,5.1-4,5.1-7.7c0-3.4-1.8-5.8-4-7.2c-2.1-1.3-6.1-1.3-9.1-1.3H51.1
		V166.5z M55.7,136h9.1c3.9,0,7.3,0.7,7.3,5.4c0,3.6-2.1,5.5-7.3,5.5h-9.1V136z"/>
	<path id="XMLID_92_" d="M100,157.9c0,2.3-2.2,5.6-7.6,5.6c-2.5,0-4.8-1-4.8-3.7c0-3,2.3-4,5-4.5c2.7-0.5,5.8-0.5,7.4-1.7V157.9z
		 M106.7,163.3c-0.5,0.2-0.9,0.2-1.3,0.2c-1.3,0-1.3-0.9-1.3-2.8v-12.8c0-5.8-4.9-6.8-9.3-6.8c-5.5,0-10.3,2.2-10.5,8.3h4.1
		c0.2-3.7,2.7-4.7,6.2-4.7c2.6,0,5.5,0.6,5.5,4.1c0,3.1-3.9,2.8-8.4,3.7c-4.2,0.8-8.4,2-8.4,7.7c0,5,3.7,7,8.2,7
		c3.5,0,6.5-1.2,8.8-3.9c0,2.7,1.3,3.9,3.5,3.9c1.3,0,2.2-0.2,2.9-0.7V163.3z"/>
	<path id="XMLID_90_" d="M111.6,166.5h4.1v-14.1c0-4.5,2.4-7.8,7.4-7.8c3.1,0,5.1,2,5.1,5v16.9h4.1v-16.4c0-5.3-2-9.1-8.6-9.1
		c-3.6,0-6.4,1.4-8.1,4.5h-0.1v-3.9h-3.9V166.5z"/>
	<path id="XMLID_87_" d="M161.8,141.6h-4.1v3.3h-0.1c-1.8-2.9-5.5-3.9-8-3.9c-7.6,0-11.4,5.9-11.4,13c0,7,3.8,13.1,11.5,13.1
		c3.4,0,6.6-1.2,7.9-3.9h0.1v12.9h4.1V141.6z M142.6,154.3c0-4.9,1.9-9.6,7.5-9.6c5.6,0,7.8,4.5,7.8,9.4c0,4.7-2.1,9.4-7.6,9.4
		C145,163.5,142.6,159,142.6,154.3z"/>
	<path id="XMLID_85_" d="M190.9,141.6h-4.1v14.1c0,4.5-2.4,7.8-7.4,7.8c-3.1,0-5.1-2-5.1-5v-16.9h-4.1V158c0,5.3,2,9.1,8.6,9.1
		c3.6,0,6.4-1.4,8.1-4.5h0.1v3.9h3.9V141.6z"/>
	<path id="XMLID_82_" d="M215.5,158.6c-0.7,3.2-3.1,4.9-6.5,4.9c-5.4,0-7.9-3.9-7.8-8.2h18.6c0.2-6-2.5-14.3-11.3-14.3
		c-6.8,0-11.7,5.5-11.7,13c0.2,7.6,4,13.1,11.9,13.1c5.6,0,9.5-3,10.6-8.5H215.5z M201.3,151.7c0.3-3.8,2.8-7,7.1-7c4,0,7,3.1,7.2,7
		H201.3z"/>
	<path id="XMLID_78_" class="st1" d="M256.6,159.4c-1.7,2.5-4.2,4.1-7.3,4.1c-3.3,0-6.5-2.4-6.5-5.8c0-4.1,2.7-5.9,6-7.8
		L256.6,159.4z M262.5,166.5h5.3l-6.7-7.8c1.4-3,2-4.4,2.3-8.5h-3.9c-0.1,1.8-0.5,3.7-1.1,5.3l-6.2-7.6c3.3-1.9,6.5-4.8,6.5-8.9
		c0-4.7-4-7-8.3-7c-5,0-7.8,3.3-7.8,7.1c0,3.5,1.9,5.3,3.8,8.1c-4.4,2.3-8,5-8,10.4c0,2.8,1.4,9.4,10.7,9.4c3.8,0,7.7-1.6,9.7-4.9
		L262.5,166.5z M250.1,145.4c-1.5-1.9-3.3-3.9-3.3-6c0-2.5,2-3.7,3.9-3.7c2.5,0,3.9,1.7,3.9,3.7C254.6,142.3,252,144.1,250.1,145.4z
		"/>
	<path id="XMLID_75_" d="M282.6,166.5h4.7l3.9-10.4h14.5l3.8,10.4h5.1L301,132.1H296L282.6,166.5z M298.4,136.3L298.4,136.3l5.8,16
		h-11.6L298.4,136.3z"/>
	<path id="XMLID_73_" d="M316.8,158.7c0.2,6.2,5,8.4,10.5,8.4c5.1,0,10.6-1.9,10.6-7.9c0-4.8-4-6.2-8.1-7.1
		c-3.8-0.9-8.1-1.4-8.1-4.3c0-2.5,2.8-3.2,5.3-3.2c2.7,0,5.5,1,5.8,4.2h4.1c-0.3-6.1-4.7-7.8-10.2-7.8c-4.3,0-9.3,2.1-9.3,7.1
		c0,4.8,4.1,6.1,8.1,7c4.1,0.9,8.1,1.4,8.1,4.6c0,3.1-3.5,3.7-6,3.7c-3.4,0-6.5-1.2-6.7-4.8H316.8z"/>
	<path id="XMLID_71_" d="M342,158.7c0.2,6.2,5,8.4,10.5,8.4c5.1,0,10.6-1.9,10.6-7.9c0-4.8-4-6.2-8.1-7.1c-3.8-0.9-8.1-1.4-8.1-4.3
		c0-2.5,2.8-3.2,5.3-3.2c2.7,0,5.5,1,5.8,4.2h4.1c-0.3-6.1-4.7-7.8-10.2-7.8c-4.3,0-9.3,2.1-9.3,7.1c0,4.8,4.1,6.1,8.1,7
		c4.1,0.9,8.1,1.4,8.1,4.6c0,3.1-3.5,3.7-6,3.7c-3.4,0-6.5-1.2-6.7-4.8H342z"/>
	<path id="XMLID_69_" d="M389.5,141.6h-4.1v14.1c0,4.5-2.4,7.8-7.4,7.8c-3.1,0-5.1-2-5.1-5v-16.9h-4.1V158c0,5.3,2,9.1,8.6,9.1
		c3.6,0,6.4-1.4,8.1-4.5h0.1v3.9h3.9V141.6z"/>
	<path id="XMLID_66_" d="M396.7,166.5h4.1v-11.1c0-6.3,2.4-10.1,9-10.1v-4.3c-4.4-0.1-7.2,1.8-9.1,5.8h-0.1v-5.2h-3.9V166.5z"/>
	<path id="XMLID_63_" d="M429.5,157.9c0,2.3-2.2,5.6-7.6,5.6c-2.5,0-4.8-1-4.8-3.7c0-3,2.3-4,5-4.5c2.7-0.5,5.8-0.5,7.4-1.7V157.9z
		 M436.1,163.3c-0.5,0.2-0.9,0.2-1.3,0.2c-1.3,0-1.3-0.9-1.3-2.8v-12.8c0-5.8-4.9-6.8-9.3-6.8c-5.5,0-10.3,2.2-10.5,8.3h4.1
		c0.2-3.7,2.7-4.7,6.2-4.7c2.6,0,5.5,0.6,5.5,4.1c0,3.1-3.9,2.8-8.4,3.7c-4.2,0.8-8.4,2-8.4,7.7c0,5,3.7,7,8.2,7
		c3.5,0,6.5-1.2,8.8-3.9c0,2.7,1.3,3.9,3.5,3.9c1.3,0,2.2-0.2,2.9-0.7V163.3z"/>
	<path id="XMLID_60_" d="M441.1,166.5h4.1v-14.1c0-4.5,2.4-7.8,7.4-7.8c3.1,0,5.1,2,5.1,5v16.9h4.1v-16.4c0-5.3-2-9.1-8.6-9.1
		c-3.6,0-6.4,1.4-8.1,4.5h-0.1v-3.9h-3.9V166.5z"/>
	<path id="XMLID_58_" d="M490.2,149.6c-0.6-5.9-5.1-8.6-10.7-8.6c-7.9,0-11.7,5.9-11.7,13.3c0,7.4,4,12.7,11.7,12.7
		c6.3,0,10.1-3.6,11-9.7h-4.2c-0.5,3.8-2.9,6.1-6.8,6.1c-5.2,0-7.3-4.5-7.3-9.1c0-5.1,1.8-9.7,7.8-9.7c3.4,0,5.5,1.8,6.2,5H490.2z"
		/>
	<path id="XMLID_54_" d="M513.3,158.6c-0.7,3.2-3.1,4.9-6.5,4.9c-5.4,0-7.9-3.9-7.8-8.2h18.6c0.2-6-2.5-14.3-11.3-14.3
		c-6.8,0-11.7,5.5-11.7,13c0.2,7.6,4,13.1,11.9,13.1c5.6,0,9.5-3,10.6-8.5H513.3z M499.1,151.7c0.3-3.8,2.8-7,7.1-7c4,0,7,3.1,7.2,7
		H499.1z"/>
	<path id="XMLID_48_" d="M521.5,158.7c0.2,6.2,5,8.4,10.5,8.4c5.1,0,10.6-1.9,10.6-7.9c0-4.8-4-6.2-8.1-7.1
		c-3.8-0.9-8.1-1.4-8.1-4.3c0-2.5,2.8-3.2,5.3-3.2c2.7,0,5.5,1,5.8,4.2h4.1c-0.3-6.1-4.7-7.8-10.2-7.8c-4.3,0-9.3,2.1-9.3,7.1
		c0,4.8,4.1,6.1,8.1,7c4.1,0.9,8.1,1.4,8.1,4.6c0,3.1-3.5,3.7-6,3.7c-3.4,0-6.5-1.2-6.7-4.8H521.5z"/>
</g>
</svg>
