<?xml version="1.0" encoding="utf-8"?>
<!-- Generator: Adobe Illustrator 21.0.0, SVG Export Plug-In . SVG Version: 6.00 Build 0)  -->
<svg version="1.1" id="Layer_1" xmlns="http://www.w3.org/2000/svg" xmlns:xlink="http://www.w3.org/1999/xlink" x="0px" y="0px"
	 viewBox="0 0 60 60" style="enable-background:new 0 0 60 60;" xml:space="preserve">
<style type="text/css">
	.st0{fill:#333333;}
	.st1{fill:#E60028;}
	.st2{fill:#708695;}
	.st3{fill:#FFFFFF;}
</style>
<g>
	<path class="st0" d="M44.1,27.4H17.4c-2.1,0-3.9-1.7-3.9-3.9s1.7-3.9,3.9-3.9h26.8c2.1,0,3.9,1.7,3.9,3.9S46.3,27.4,44.1,27.4z
		 M17.4,21.6c-1,0-1.9,0.8-1.9,1.9s0.8,1.9,1.9,1.9h26.8c1,0,1.9-0.8,1.9-1.9s-0.8-1.9-1.9-1.9H17.4z"/>
</g>
<g>
	<g>
		<circle class="st1" cx="30.5" cy="23.4" r="8.1"/>
	</g>
	<g id="com-touchpad_3_">
		<g>
			<path class="st2" d="M37.6,38.7v-3.9c0-1.3-1-2.3-2.3-2.3c-1.3,0-2.3,1-2.3,2.3"/>
		</g>
		<g>
			<path class="st2" d="M37.6,36.4c0-1.3,1-2.3,2.3-2.3c1.3,0,2.3,1,2.3,2.3v3.9"/>
		</g>
		<g>
			<path class="st2" d="M28.3,44.9V25.5c0-1.3,1-2.3,2.3-2.3c1.3,0,2.3,1,2.3,2.3v11.6"/>
		</g>
		<g>
			<path class="st2" d="M28.3,37.9c0-1.3-1-2.3-2.3-2.3c-1.3,0-2.3,1-2.3,2.3v8.5c0,4.7,4.1,9.3,11.6,9.3s11.6-4.7,11.6-9.3
				s0-8.5,0-8.5c0-1.3-1-2.3-2.3-2.3c-1.3,0-2.3,1-2.3,2.3"/>
		</g>
	</g>
	<g>
		<ellipse class="st0" cx="36.5" cy="40.2" rx="4.5" ry="3.9"/>
	</g>
	<g>
		<ellipse class="st0" cx="33" cy="38.7" rx="4.5" ry="3.9"/>
	</g>
	<g id="com-touchpad_2_">
		<g>
			<path class="st0" d="M37.6,38.7v-3.9c0-1.3-1-2.3-2.3-2.3c-1.3,0-2.3,1-2.3,2.3"/>
			<path class="st3" d="M37.6,39.5c-0.4,0-0.8-0.3-0.8-0.8v-3.9c0-0.9-0.7-1.6-1.6-1.6s-1.6,0.7-1.6,1.6c0,0.4-0.3,0.8-0.8,0.8
				s-0.8-0.3-0.8-0.8c0-1.7,1.4-3.1,3.1-3.1s3.1,1.4,3.1,3.1v3.9C38.4,39.1,38.1,39.5,37.6,39.5z"/>
		</g>
		<g>
			<path class="st0" d="M37.6,36.4c0-1.3,1-2.3,2.3-2.3c1.3,0,2.3,1,2.3,2.3v3.9"/>
			<path class="st3" d="M42.3,41c-0.4,0-0.8-0.3-0.8-0.8v-3.9c0-0.9-0.7-1.6-1.6-1.6s-1.6,0.7-1.6,1.6c0,0.4-0.3,0.8-0.8,0.8
				s-0.8-0.3-0.8-0.8c0-1.7,1.4-3.1,3.1-3.1s3.1,1.4,3.1,3.1v3.9C43.1,40.7,42.7,41,42.3,41z"/>
		</g>
		<g>
			<path class="st0" d="M28.3,44.9V25.5c0-1.3,1-2.3,2.3-2.3c1.3,0,2.3,1,2.3,2.3v11.6"/>
			<path class="st3" d="M28.3,45.7c-0.4,0-0.8-0.3-0.8-0.8V25.5c0-1.7,1.4-3.1,3.1-3.1s3.1,1.4,3.1,3.1v11.6c0,0.4-0.3,0.8-0.8,0.8
				s-0.8-0.3-0.8-0.8V25.5c0-0.9-0.7-1.6-1.6-1.6s-1.6,0.7-1.6,1.6v19.4C29.1,45.3,28.8,45.7,28.3,45.7z"/>
		</g>
		<g>
			<path class="st0" d="M28.3,37.9c0-1.3-1-2.3-2.3-2.3c-1.3,0-2.3,1-2.3,2.3v8.5c0,4.7,4.1,9.3,11.6,9.3s11.6-4.7,11.6-9.3
				s0-8.5,0-8.5c0-1.3-1-2.3-2.3-2.3c-1.3,0-2.3,1-2.3,2.3"/>
			<path class="st3" d="M35.3,56.5c-8.1,0-12.4-5.1-12.4-10.1v-8.5c0-1.7,1.4-3.1,3.1-3.1s3.1,1.4,3.1,3.1c0,0.4-0.3,0.8-0.8,0.8
				s-0.8-0.3-0.8-0.8c0-0.9-0.7-1.6-1.6-1.6s-1.6,0.7-1.6,1.6v8.5c0,4.2,3.7,8.5,10.9,8.5c7.1,0,10.9-4.3,10.9-8.5v-8.5
				c0-0.9-0.7-1.6-1.6-1.6s-1.6,0.7-1.6,1.6c0,0.4-0.3,0.8-0.8,0.8s-0.8-0.3-0.8-0.8c0-1.7,1.4-3.1,3.1-3.1s3.1,1.4,3.1,3.1v8.5
				C47.7,51.5,43.5,56.5,35.3,56.5z"/>
		</g>
	</g>
</g>
<g id="com-code_1_">
	<g>
		<path class="st0" d="M52,29.5c-0.3,0-0.6-0.1-0.8-0.4c-0.4-0.4-0.3-1.1,0.1-1.4l5.1-4.2l-5.1-4.2c-0.4-0.4-0.5-1-0.1-1.4
			c0.4-0.4,1-0.5,1.4-0.1l6,5c0.2,0.2,0.4,0.5,0.4,0.8s-0.1,0.6-0.4,0.8l-6,5C52.5,29.4,52.2,29.5,52,29.5z"/>
	</g>
	<g>
		<path class="st0" d="M8,29.5c-0.2,0-0.5-0.1-0.6-0.2l-6-5C1.1,24.1,1,23.8,1,23.5s0.1-0.6,0.4-0.8l6-5c0.4-0.4,1.1-0.3,1.4,0.1
			c0.4,0.4,0.3,1.1-0.1,1.4l-5.1,4.2l5.1,4.2c0.4,0.4,0.5,1,0.1,1.4C8.6,29.4,8.3,29.5,8,29.5z"/>
	</g>
</g>
</svg>
