<?xml version="1.0" encoding="utf-8"?>
<!-- Generator: Adobe Illustrator 21.0.0, SVG Export Plug-In . SVG Version: 6.00 Build 0)  -->
<svg version="1.1" id="Layer_1" xmlns="http://www.w3.org/2000/svg" xmlns:xlink="http://www.w3.org/1999/xlink" x="0px" y="0px"
	 viewBox="0 0 60 60" style="enable-background:new 0 0 60 60;" xml:space="preserve">
<style type="text/css">
	.st0{fill:#333333;}
	.st1{fill:#E3082A;}
</style>
<g>
	<g id="ema-cross_1_">
		<g>
			<path class="st0" d="M45.6,60H10c-1.9,0-2.8-0.9-2.8-2.8V11.2c0-0.5,0.4-0.9,0.9-0.9s0.9,0.4,0.9,0.9v45.9c0,0.9,0,0.9,0.9,0.9
				h35.6c0.5,0,0.9,0.4,0.9,0.9S46.2,60,45.6,60z"/>
		</g>
		<g>
			<path class="st0" d="M51.3,26.2c-0.5,0-0.9-0.4-0.9-0.9V2.8c0-0.8-0.1-0.9-0.9-0.9H18.5c-0.5,0-0.9-0.4-0.9-0.9S17.9,0,18.5,0
				h30.9c1.9,0,2.8,0.9,2.8,2.8v22.5C52.2,25.8,51.8,26.2,51.3,26.2z"/>
		</g>
	</g>
	<g>
		<path class="st0" d="M49.4,60H10c-0.5,0-0.9-0.4-0.9-0.9s0.4-0.9,0.9-0.9h39.4c0.8,0,0.9-0.1,0.9-0.9V8.4c0-0.5,0.4-0.9,0.9-0.9
			s0.9,0.4,0.9,0.9v48.8C52.2,59.1,51.3,60,49.4,60z"/>
	</g>
</g>
<g>
	<g>
		<path class="st1" d="M19.7,45.3c-0.2,0-0.5-0.1-0.7-0.3c-0.4-0.4-0.4-1,0-1.3l20-20c0.4-0.4,1-0.4,1.3,0s0.4,1,0,1.3l-20,20
			C20.2,45.2,20,45.3,19.7,45.3z"/>
	</g>
	<g>
		<path class="st1" d="M39.7,45.3c-0.2,0-0.5-0.1-0.7-0.3l-20-20c-0.4-0.4-0.4-1,0-1.3s1-0.4,1.3,0l20,20c0.4,0.4,0.4,1,0,1.3
			C40.2,45.2,39.9,45.3,39.7,45.3z"/>
	</g>
</g>
<g id="fil-minus">
	<g>
		<path class="st0" d="M8.4,12.2c-0.2,0-0.5-0.1-0.7-0.3c-0.4-0.4-0.4-1,0-1.3L18,0.3c0.4-0.4,1-0.4,1.3,0s0.4,1,0,1.3L9,11.9
			C8.8,12.1,8.6,12.2,8.4,12.2z"/>
	</g>
	<g>
		<path class="st0" d="M16.8,13.1H8.4c-0.5,0-0.9-0.4-0.9-0.9s0.4-0.9,0.9-0.9h8.4c1,0,1.9-0.8,1.9-1.9V0.9c0-0.5,0.4-0.9,0.9-0.9
			s0.9,0.4,0.9,0.9v8.4C20.5,11.4,18.9,13.1,16.8,13.1z"/>
	</g>
</g>
</svg>
