<?xml version="1.0" encoding="utf-8"?>
<!-- Generator: Adobe Illustrator 21.0.0, SVG Export Plug-In . SVG Version: 6.00 Build 0)  -->
<svg version="1.1" id="Layer_1" xmlns="http://www.w3.org/2000/svg" xmlns:xlink="http://www.w3.org/1999/xlink" x="0px" y="0px"
	 viewBox="0 0 103 60" style="enable-background:new 0 0 103 60;" xml:space="preserve">
<style type="text/css">
	.st0{fill:#333333;}
	.st1{fill:#E60028;}
	.st2{fill:#708695;}
	.st3{fill:#FFFFFF;}
</style>
<g>
	<path class="st0" d="M89.2,24.2H13.8c-1.6,0-2.9-1.3-2.9-2.9c0-1.6,1.3-2.9,2.9-2.9h75.4c1.6,0,2.9,1.3,2.9,2.9
		C92.1,22.9,90.8,24.2,89.2,24.2z M13.8,19.9c-0.8,0-1.4,0.6-1.4,1.4s0.6,1.4,1.4,1.4h75.4c0.8,0,1.4-0.6,1.4-1.4s-0.6-1.4-1.4-1.4
		H13.8z"/>
</g>
<g>
	<circle class="st1" cx="49.4" cy="21.4" r="7.9"/>
</g>
<g id="com-touchpad">
	<g>
		<path class="st2" d="M56.4,36.2v-3.8c0-1.2-1-2.3-2.3-2.3c-1.2,0-2.3,1-2.3,2.3"/>
	</g>
	<g>
		<path class="st2" d="M56.4,33.9c0-1.2,1-2.3,2.3-2.3c1.2,0,2.3,1,2.3,2.3v3.8"/>
	</g>
	<g>
		<path class="st2" d="M47.4,42.2V23.4c0-1.2,1-2.3,2.3-2.3c1.2,0,2.3,1,2.3,2.3v11.3"/>
	</g>
	<g>
		<path class="st2" d="M47.4,35.4c0-1.2-1-2.3-2.3-2.3c-1.2,0-2.3,1-2.3,2.3v8.3c0,4.5,3.9,9,11.3,9s11.3-4.5,11.3-9s0-8.3,0-8.3
			c0-1.2-1-2.3-2.3-2.3c-1.2,0-2.3,1-2.3,2.3"/>
	</g>
</g>
<g>
	<ellipse class="st0" cx="55.3" cy="37.6" rx="4.4" ry="3.8"/>
</g>
<g>
	<ellipse class="st0" cx="51.9" cy="36.2" rx="4.4" ry="3.8"/>
</g>
<g id="com-touchpad_1_">
	<g>
		<path class="st0" d="M56.4,36.2v-3.8c0-1.2-1-2.3-2.3-2.3c-1.2,0-2.3,1-2.3,2.3"/>
		<path class="st3" d="M56.4,36.9c-0.4,0-0.8-0.3-0.8-0.8v-3.8c0-0.8-0.7-1.5-1.5-1.5c-0.8,0-1.5,0.7-1.5,1.5c0,0.4-0.3,0.8-0.8,0.8
			c-0.4,0-0.8-0.3-0.8-0.8c0-1.7,1.3-3,3-3c1.7,0,3,1.3,3,3v3.8C57.1,36.6,56.8,36.9,56.4,36.9z"/>
	</g>
	<g>
		<path class="st0" d="M56.4,33.9c0-1.2,1-2.3,2.3-2.3c1.2,0,2.3,1,2.3,2.3v3.8"/>
		<path class="st3" d="M60.9,38.4c-0.4,0-0.8-0.3-0.8-0.8v-3.8c0-0.8-0.7-1.5-1.5-1.5c-0.8,0-1.5,0.7-1.5,1.5c0,0.4-0.3,0.8-0.8,0.8
			c-0.4,0-0.8-0.3-0.8-0.8c0-1.7,1.3-3,3-3c1.7,0,3,1.3,3,3v3.8C61.6,38.1,61.3,38.4,60.9,38.4z"/>
	</g>
	<g>
		<path class="st0" d="M47.4,42.2V23.4c0-1.2,1-2.3,2.3-2.3c1.2,0,2.3,1,2.3,2.3v11.3"/>
		<path class="st3" d="M47.4,42.9c-0.4,0-0.8-0.3-0.8-0.8V23.4c0-1.7,1.3-3,3-3c1.7,0,3,1.3,3,3v11.3c0,0.4-0.3,0.8-0.8,0.8
			c-0.4,0-0.8-0.3-0.8-0.8V23.4c0-0.8-0.7-1.5-1.5-1.5c-0.8,0-1.5,0.7-1.5,1.5v18.8C48.1,42.6,47.8,42.9,47.4,42.9z"/>
	</g>
	<g>
		<path class="st0" d="M47.4,35.4c0-1.2-1-2.3-2.3-2.3c-1.2,0-2.3,1-2.3,2.3v8.3c0,4.5,3.9,9,11.3,9s11.3-4.5,11.3-9s0-8.3,0-8.3
			c0-1.2-1-2.3-2.3-2.3c-1.2,0-2.3,1-2.3,2.3"/>
		<path class="st3" d="M54.1,53.5c-7.9,0-12-4.9-12-9.8v-8.3c0-1.7,1.3-3,3-3s3,1.3,3,3c0,0.4-0.3,0.8-0.8,0.8s-0.8-0.3-0.8-0.8
			c0-0.8-0.7-1.5-1.5-1.5s-1.5,0.7-1.5,1.5v8.3c0,4.1,3.6,8.3,10.5,8.3c6.9,0,10.5-4.2,10.5-8.3v-8.3c0-0.8-0.7-1.5-1.5-1.5
			c-0.8,0-1.5,0.7-1.5,1.5c0,0.4-0.3,0.8-0.8,0.8c-0.4,0-0.8-0.3-0.8-0.8c0-1.7,1.3-3,3-3c1.7,0,3,1.3,3,3v8.3
			C66.2,48.5,62,53.5,54.1,53.5z"/>
	</g>
</g>
<g id="com-code">
	<g>
		<path class="st0" d="M97.7,25.8c-0.2,0-0.4-0.1-0.6-0.3c-0.3-0.3-0.2-0.8,0.1-1.1l3.8-3.2l-3.8-3.2c-0.3-0.3-0.4-0.7-0.1-1.1
			c0.3-0.3,0.7-0.4,1.1-0.1l4.5,3.8c0.2,0.1,0.3,0.4,0.3,0.6s-0.1,0.4-0.3,0.6l-4.5,3.8C98.1,25.8,97.9,25.8,97.7,25.8z"/>
	</g>
	<g>
		<path class="st0" d="M5.3,25.8c-0.2,0-0.3-0.1-0.5-0.2l-4.5-3.8C0.1,21.8,0,21.5,0,21.3s0.1-0.4,0.3-0.6L4.8,17
			c0.3-0.3,0.8-0.2,1.1,0.1s0.2,0.8-0.1,1.1l-3.8,3.2l3.8,3.2c0.3,0.3,0.4,0.7,0.1,1.1C5.7,25.7,5.5,25.8,5.3,25.8z"/>
	</g>
</g>
</svg>
