<?xml version="1.0" encoding="utf-8"?>
<!-- Generator: Adobe Illustrator 21.0.0, SVG Export Plug-In . SVG Version: 6.00 Build 0)  -->
<svg version="1.1" xmlns="http://www.w3.org/2000/svg" xmlns:xlink="http://www.w3.org/1999/xlink" x="0px" y="0px"
	 viewBox="0 0 60 60" style="enable-background:new 0 0 60 60;" xml:space="preserve">
<style type="text/css">
	.st0{display:none;}
	.st1{display:inline;}
	.st2{fill:#333333;}
	.st3{fill:#E3082A;}
</style>
<g id="Layer_1" class="st0">
	<g class="st1">
		<g id="ema-cross_1_">
			<g>
				<path class="st2" d="M45.6,60H10c-1.9,0-2.8-0.9-2.8-2.8v-46c0-0.5,0.4-0.9,0.9-0.9S9,10.7,9,11.2v45.9C9,58,9,58,9.9,58h35.6
					c0.5,0,0.9,0.4,0.9,0.9S46.2,60,45.6,60z"/>
			</g>
			<g>
				<path class="st2" d="M51.3,26.2c-0.5,0-0.9-0.4-0.9-0.9V2.8c0-0.8-0.1-0.9-0.9-0.9h-31c-0.5,0-0.9-0.4-0.9-0.9s0.3-1,0.9-1h30.9
					c1.9,0,2.8,0.9,2.8,2.8v22.5C52.2,25.8,51.8,26.2,51.3,26.2z"/>
			</g>
		</g>
		<g>
			<path class="st2" d="M49.4,60H10c-0.5,0-0.9-0.4-0.9-0.9s0.4-0.9,0.9-0.9h39.4c0.8,0,0.9-0.1,0.9-0.9V8.4c0-0.5,0.4-0.9,0.9-0.9
				s0.9,0.4,0.9,0.9v48.8C52.2,59.1,51.3,60,49.4,60z"/>
		</g>
	</g>
	<g class="st1">
		<g>
			<path class="st3" d="M19.7,45.3c-0.2,0-0.5-0.1-0.7-0.3c-0.4-0.4-0.4-1,0-1.3l20-20c0.4-0.4,1-0.4,1.3,0s0.4,1,0,1.3l-20,20
				C20.2,45.2,20,45.3,19.7,45.3z"/>
		</g>
		<g>
			<path class="st3" d="M39.7,45.3c-0.2,0-0.5-0.1-0.7-0.3L19,25c-0.4-0.4-0.4-1,0-1.3s1-0.4,1.3,0l20,20c0.4,0.4,0.4,1,0,1.3
				C40.2,45.2,39.9,45.3,39.7,45.3z"/>
		</g>
	</g>
	<g id="fil-minus" class="st1">
		<g>
			<path class="st2" d="M8.4,12.2c-0.2,0-0.5-0.1-0.7-0.3c-0.4-0.4-0.4-1,0-1.3L18,0.3c0.4-0.4,1-0.4,1.3,0s0.4,1,0,1.3L9,11.9
				C8.8,12.1,8.6,12.2,8.4,12.2z"/>
		</g>
		<g>
			<path class="st2" d="M16.8,13.1H8.4c-0.5,0-0.9-0.4-0.9-0.9s0.4-0.9,0.9-0.9h8.4c1,0,1.9-0.8,1.9-1.9V0.9c0-0.5,0.4-0.9,0.9-0.9
				s0.9,0.4,0.9,0.9v8.4C20.5,11.4,18.9,13.1,16.8,13.1z"/>
		</g>
	</g>
</g>
<g id="Layer_2">
	<g>
		<g id="ema-cross_2_">
			<g>
				<path class="st2" d="M45.3,55.3H11.1c-2,0-3-1-3-3V16.2c0-0.7,0.5-1.2,1.2-1.2s1.2,0.5,1.2,1.2v36.1c0,0.3,0,0.5,0,0.5
					c0.1,0,0.2,0,0.6,0h34.2c0.7,0,1.2,0.5,1.2,1.2S45.9,55.3,45.3,55.3z M10.6,52.9L10.6,52.9L10.6,52.9z"/>
			</g>
			<g>
				<path class="st2" d="M50.7,25.9c-0.7,0-1.2-0.5-1.2-1.2V8.1c0-0.4-0.1-0.5-0.1-0.5c0,0-0.1-0.1-0.5-0.1H19.2
					C18.5,7.5,18,7,18,6.3s0.5-1.2,1.2-1.2h29.7c2,0,3,1,3,3v16.6C51.9,25.4,51.3,25.9,50.7,25.9z"/>
			</g>
		</g>
		<g>
			<path class="st2" d="M48.9,55.3H11.1c-0.7,0-1.2-0.5-1.2-1.2s0.5-1.2,1.2-1.2h37.8c0.4,0,0.5-0.1,0.5-0.1c0,0,0.1-0.1,0.1-0.5
				V13.5c0-0.7,0.5-1.2,1.2-1.2s1.2,0.5,1.2,1.2v38.8C51.9,54.3,50.8,55.3,48.9,55.3z"/>
		</g>
	</g>
	<g>
		<g>
			<path class="st3" d="M21.6,43c-0.3,0-0.6-0.1-0.8-0.4c-0.5-0.5-0.5-1.2,0-1.7l16.7-16.7c0.5-0.5,1.2-0.5,1.7,0s0.5,1.2,0,1.7
				L22.5,42.7C22.2,42.9,21.9,43,21.6,43z"/>
		</g>
		<g>
			<path class="st3" d="M38.3,43c-0.3,0-0.6-0.1-0.8-0.4L20.8,26c-0.5-0.5-0.5-1.2,0-1.7s1.2-0.5,1.7,0L39.2,41
				c0.5,0.5,0.5,1.2,0,1.7C38.9,42.9,38.6,43,38.3,43z"/>
		</g>
	</g>
	<g id="fil-minus_1_">
		<g>
			<path class="st2" d="M9.5,17.4c-0.3,0-0.6-0.1-0.8-0.4c-0.5-0.5-0.5-1.2,0-1.7l9.9-9.9C19,5,19.8,5,20.2,5.5s0.5,1.2,0,1.7
				l-9.9,9.9C10.1,17.3,9.8,17.4,9.5,17.4z"/>
		</g>
		<g>
			<path class="st2" d="M17.6,18.3H9.5c-0.7,0-1.2-0.5-1.2-1.2s0.5-1.2,1.2-1.2h8.1c0.8,0,1.5-0.7,1.5-1.5V6.3
				c0-0.7,0.5-1.2,1.2-1.2s1.2,0.5,1.2,1.2v8.1C21.5,16.6,19.7,18.3,17.6,18.3z"/>
		</g>
	</g>
</g>
</svg>
