<?xml version="1.0" encoding="utf-8"?>
<!-- Generator: Adobe Illustrator 21.0.0, SVG Export Plug-In . SVG Version: 6.00 Build 0)  -->
<svg version="1.1" id="Layer_1" xmlns="http://www.w3.org/2000/svg" xmlns:xlink="http://www.w3.org/1999/xlink" x="0px" y="0px"
	 viewBox="0 0 60 60" style="enable-background:new 0 0 60 60;" xml:space="preserve">
<style type="text/css">
	.st0{fill:#333333;}
	.st1{fill:#E3082A;}
</style>
<g id="tim-calendar-2">
	<g>
		<path class="st0" d="M58.8,17.2H1.2C0.5,17.2,0,16.6,0,16s0.5-1.2,1.2-1.2h57.7c0.6,0,1.2,0.5,1.2,1.2S59.5,17.2,58.8,17.2z"/>
	</g>
	<g>
		<path class="st0" d="M45,58.7H4.6c-2.5,0-4.6-2.1-4.6-4.6V5.6C0,3.1,2.1,1,4.6,1h50.8C57.9,1,60,3.1,60,5.6v38.1
			c0,0.6-0.5,1.2-1.2,1.2s-1.2-0.5-1.2-1.2V5.6c0-1.3-1-2.3-2.3-2.3H4.6c-1.3,0-2.3,1-2.3,2.3v48.5c0,1.3,1,2.3,2.3,2.3H45
			c0.6,0,1.2,0.5,1.2,1.2C46.2,58.2,45.6,58.7,45,58.7z"/>
	</g>
	<g>
		<path class="st1" d="M58.8,43.7v10.4c0,1.9-1.6,3.5-3.5,3.5H45"/>
		<path class="st0" d="M55.4,58.7H45c-0.6,0-1.2-0.5-1.2-1.2c0-0.6,0.5-1.2,1.2-1.2h10.4c1.3,0,2.3-1,2.3-2.3V43.7
			c0-0.6,0.5-1.2,1.2-1.2s1.2,0.5,1.2,1.2v10.4C60,56.6,57.9,58.7,55.4,58.7z"/>
	</g>
	<g>
		<path class="st0" d="M45,58.7c-0.6,0-1.2-0.5-1.2-1.2V47.2c0-2.5,2.1-4.6,4.6-4.6h10.4c0.6,0,1.2,0.5,1.2,1.2
			c0,0.6-0.5,1.2-1.2,1.2H48.5c-1.3,0-2.3,1-2.3,2.3v10.4C46.2,58.2,45.6,58.7,45,58.7z"/>
	</g>
	<g>
		<path class="st0" d="M15,12.5c-1.9,0-3.5-1.6-3.5-3.5s1.6-3.5,3.5-3.5s3.5,1.6,3.5,3.5S16.9,12.5,15,12.5z M15,7.9
			c-0.6,0-1.2,0.5-1.2,1.2c0,0.6,0.5,1.2,1.2,1.2s1.2-0.5,1.2-1.2C16.2,8.4,15.6,7.9,15,7.9z"/>
	</g>
	<g>
		<path class="st0" d="M45,12.5c-1.9,0-3.5-1.6-3.5-3.5s1.6-3.5,3.5-3.5s3.5,1.6,3.5,3.5S46.9,12.5,45,12.5z M45,7.9
			c-0.6,0-1.2,0.5-1.2,1.2c0,0.6,0.5,1.2,1.2,1.2s1.2-0.5,1.2-1.2C46.2,8.4,45.6,7.9,45,7.9z"/>
	</g>
</g>
<g>
	<path class="st1" d="M33.7,36.7c-0.6,0.7-1.2,1.2-2,1.6c-0.8,0.4-1.6,0.6-2.6,0.6c-1.2,0-2.3-0.3-3.2-0.9c-0.9-0.6-1.6-1.4-2.1-2.5
		c-0.5-1.1-0.7-2.3-0.7-3.6c0-1.4,0.3-2.7,0.8-3.8c0.5-1.1,1.3-2,2.3-2.6c1-0.6,2.1-0.9,3.5-0.9c2.1,0,3.7,0.8,4.9,2.3
		c1.2,1.6,1.8,3.7,1.8,6.4v0.8c0,4.1-0.8,7.1-2.4,9C32.3,45,29.9,46,26.6,46h-0.5v-2.3h0.6c2.2,0,3.9-0.6,5.1-1.7
		C32.9,40.9,33.6,39.2,33.7,36.7z M29.6,36.7c0.9,0,1.7-0.3,2.5-0.8c0.8-0.6,1.3-1.2,1.7-2v-1.1c0-1.8-0.4-3.2-1.1-4.3
		c-0.8-1.1-1.7-1.7-2.9-1.7c-1.2,0-2.1,0.5-2.8,1.4c-0.7,0.9-1.1,2.1-1.1,3.6c0,1.4,0.3,2.6,1,3.6C27.5,36.3,28.4,36.7,29.6,36.7z"
		/>
</g>
</svg>
